<?xml version="1.0" ?><!-- Uploaded to: SVG Repo, www.svgrepo.com, Generator: SVG Repo Mixer Tools -->
<svg fill="#000000" width="800px" height="800px" viewBox="0 0 200 200" data-name="Layer 1" id="Layer_1" xmlns="http://www.w3.org/2000/svg"><title/><path d="M177.5,67.4a9.75,9.75,0,0,0-14-1.5c-10.5,8.5-20,14.5-29.5,17.5-9.5,3.5-20.5,5-34,5s-24.5-1.5-34-5-19-9-29.5-17.5c-4.5-3.5-10.5-3-14,1.5s-3,10.5,1.5,14A132.06,132.06,0,0,0,45,95.9l-8.5,14.5c-2.5,5-1,11,3.5,13.5,5,2.5,11,1,13.5-3.5L63,103.9a112.84,112.84,0,0,0,27,4.5v18a10,10,0,0,0,20,0v-18a106.6,106.6,0,0,0,29-5.5l10,17.5a9.86,9.86,0,0,0,17-10l-9-15.5a111.22,111.22,0,0,0,19-13.5C180.5,77.9,181,71.9,177.5,67.4Z"/></svg>